<svg xmlns="http://www.w3.org/2000/svg" width="41" height="40" viewBox="0 0 41 40" fill="none">
<g clipPath="url(#clip0_158_52666)">
<path d="M20.5 40C31.5457 40 40.5 31.0457 40.5 20C40.5 8.95431 31.5457 0 20.5 0C9.4543 0 0.5 8.95431 0.5 20C0.5 31.0457 9.4543 40 20.5 40Z" fill="#7AFF59"/>
<path d="M19.4704 0.304758C14.909 0.966893 11.8673 3.23832 11.0131 3.9465C8.9618 4.4727 6.25062 6.0809 6.00608 6.2267C5.84863 6.39224 5.69342 6.56106 5.54044 6.73098C5.47233 6.80881 5.40533 6.88665 5.33721 6.96558C5.23672 7.08178 5.1351 7.19689 5.03684 7.31528C3.28931 9.58014 2.6238 12.2265 2.43285 13.1605L0.981231 15.6402C0.934332 15.8529 0.890783 16.0667 0.849468 16.2815C0.834952 16.3604 0.820436 16.4405 0.807036 16.5205C0.774654 16.7047 0.742271 16.8877 0.714355 17.073C0.734455 17.0555 0.753438 17.0346 0.767954 17.0105L2.67181 13.759C3.28261 14.0791 4.66388 14.5242 5.3562 14.7391C5.43883 15.5207 6.14119 21.9316 7.22656 23.3688C6.58226 24.1668 5.55272 27.255 5.45223 28.781C3.48919 28.8489 2.00853 27.506 1.9929 27.4918C1.97838 27.4786 1.96052 27.4709 1.94265 27.4611C2.0666 27.7691 2.19724 28.0728 2.33682 28.3732C2.98224 28.7843 4.03075 29.2885 5.29701 29.2885C5.3629 29.2885 5.42989 29.2852 5.49689 29.283C6.00608 30.8123 10.2269 33.9958 11.2152 34.7248C11.4106 35.547 11.9399 37.0609 13.3479 38.6779C13.6863 38.8073 14.028 38.929 14.3741 39.0408C14.3652 39.0276 14.3585 39.0123 14.3462 39.0002C12.6835 37.3679 12.0258 35.74 11.769 34.8169C14.0492 34.3938 16.0781 33.0958 16.8318 32.5663C17.7843 32.916 21.2425 34.0857 24.9654 34.0857C25.2378 34.0857 25.5125 34.0759 25.7872 34.0627C26.2316 35.6884 27.3025 36.834 27.7112 37.2243C27.2824 37.688 25.9715 38.8709 23.0548 39.7818C23.0146 39.7939 22.9822 39.818 22.9543 39.8454C23.3139 39.8016 23.6701 39.7468 24.0229 39.6854C24.119 39.6678 24.2161 39.6525 24.311 39.6339C24.4439 39.6086 24.5757 39.5812 24.7074 39.5538C24.9631 39.499 25.2177 39.442 25.4701 39.3773C25.4701 39.3773 25.4723 39.3773 25.4734 39.3773C27.5682 38.3633 28.2706 37.3569 28.3075 37.3021C28.3142 37.2923 28.3153 37.2824 28.3197 37.2725C36.278 35.478 36.8888 30.0669 36.9212 28.6691C37.5621 27.9445 39.0718 25.9921 40.3347 22.5148C40.3749 22.1903 40.4073 21.8625 40.433 21.5337C40.4408 21.4262 40.4508 21.3188 40.4575 21.2103C40.4653 21.0886 40.4709 20.9669 40.4754 20.8452C40.4866 20.5657 40.4966 20.285 40.4966 20.0011C40.4966 19.6941 40.4877 19.3894 40.4732 19.0857C40.4698 19.0046 40.4653 18.9246 40.4609 18.8445C40.4452 18.576 40.4263 18.3085 40.3995 18.0432C40.3961 18.0059 40.3939 17.9697 40.3894 17.9325C40.3593 17.6398 40.3213 17.3493 40.2789 17.0599C40.2666 16.9765 40.2532 16.8943 40.2398 16.8121C40.2018 16.5775 40.1605 16.344 40.1147 16.1116C40.1024 16.048 40.0913 15.9833 40.0779 15.9198C40.0209 15.6446 39.9573 15.3716 39.8892 15.0998C39.8668 15.0121 39.8434 14.9255 39.8199 14.8378C39.7652 14.6328 39.7072 14.4289 39.6457 14.226C39.6201 14.1427 39.5966 14.0583 39.5698 13.975C39.4894 13.7185 39.4034 13.4652 39.3119 13.2142C39.2784 13.121 39.2426 13.0289 39.208 12.9369C39.1399 12.7582 39.0707 12.5795 38.9981 12.403C38.9579 12.3054 38.9188 12.2078 38.8764 12.1114C38.7748 11.8746 38.6687 11.64 38.5581 11.4087C38.5135 11.3144 38.4655 11.2212 38.4186 11.128C38.3393 10.968 38.2578 10.809 38.174 10.6512C38.1193 10.5492 38.0657 10.4473 38.0099 10.3453C37.8882 10.125 37.7642 9.90682 37.6347 9.69195C37.6347 9.69195 37.6347 9.69086 37.6347 9.68976C37.8312 10.4286 38.4878 13.0848 37.9898 13.9399C35.9787 13.4093 33.3837 13.3754 32.4926 13.3808C31.9812 11.9754 27.8675 8.62859 26.6169 7.91931C26.6135 7.46656 26.5208 3.60776 26.4963 2.55098C27.8441 2.35804 31.0477 3.03223 31.0477 3.03223C31.0499 3.02675 31.0521 3.02236 31.0544 3.01688C27.9937 1.10612 24.3769 0 20.5 0C20.4073 0 20.3157 0.00548125 20.223 0.0065775L19.4704 0.303661V0.304758ZM7.81725 23.3063C7.80274 23.2537 7.77371 23.2043 7.72569 23.1693C6.96415 22.6222 6.18474 17.7143 5.86873 14.7215C7.75919 12.0039 10.4592 9.67989 11.2286 9.04297C11.5167 9.09888 17.1858 10.2149 19.1957 11.2179C19.323 12.6913 20.261 17.4128 20.6038 18.6363C19.7998 19.4157 15.4684 23.6374 14.3462 25.103C13.2095 24.6558 9.13153 23.6319 7.81725 23.3063ZM32.468 13.884C33.3223 13.8796 36.0468 13.9114 38.0166 14.4672C38.5983 15.2357 40.0064 17.4797 40.1683 21.3889C40.1683 21.3889 40.175 21.3889 40.1851 21.3868C38.9478 25.2182 37.3187 27.4172 36.6118 28.2482C35.6326 28.1068 32.6065 28.0191 31.6484 27.995C31.4497 25.968 29.9098 21.8329 29.2756 20.1962C30.6345 19.0145 32.1062 14.932 32.468 13.884ZM28.8021 20.3892C29.4721 22.1256 31.1593 26.6696 31.1593 28.3896C31.1593 28.4071 31.166 28.4225 31.1694 28.44C30.3062 29.8147 26.5789 32.8502 25.833 33.5617C21.9583 33.7678 18.1673 32.517 17.0808 32.1223C16.7436 31.0721 15.2417 26.4339 14.7381 25.4264C15.7431 24.0901 20.0086 19.9233 20.9153 19.0419C22.1135 19.5198 27.7503 20.2554 28.8021 20.3892ZM26.111 7.78886C24.6684 7.89629 20.0734 10.3179 19.3208 10.7191C17.264 9.75005 12.3273 8.74918 11.443 8.57378V4.25345C12.391 3.49814 15.3802 1.3736 19.6725 0.782723C22.4172 1.02719 24.9933 1.97764 25.9871 2.38106C26.0016 2.98399 26.0965 6.90967 26.111 7.78886Z" fill="#2E2E2E"/>
<path d="M26.0508 9.17999L25.8777 9.25234L25.7102 9.33017C25.5997 9.38499 25.488 9.43541 25.3786 9.49352L24.7242 9.83445L23.4245 10.5306L22.1247 11.2245L21.4748 11.5698L20.8238 11.9129L21.0271 11.526L21.1443 12.3109L21.266 13.1002L21.3855 13.8928L21.4983 14.6876C21.5363 14.9528 21.5686 15.2181 21.6044 15.4834L21.7004 16.2826C21.7294 16.549 21.7596 16.8165 21.7841 17.0851L21.8221 17.4874C21.831 17.6222 21.8467 17.756 21.8534 17.8919C21.7462 17.6419 21.6524 17.3865 21.5631 17.1311C21.4726 16.8757 21.39 16.6181 21.3107 16.3604C21.1521 15.8441 21.0092 15.3245 20.8797 14.8016C20.8127 14.5407 20.7535 14.2786 20.6932 14.0155C20.6362 13.7524 20.5782 13.4893 20.5268 13.2252C20.4766 12.961 20.423 12.6957 20.3805 12.4293L20.3147 12.0291C20.2923 11.8954 20.2767 11.7595 20.2577 11.6246C20.2343 11.4624 20.3214 11.3089 20.4609 11.2377C20.682 11.1247 20.9031 11.0118 21.1264 10.9055C21.3487 10.7959 21.5742 10.6906 21.7998 10.5876C22.0253 10.4834 22.2531 10.3837 22.482 10.2861C22.5959 10.2357 22.711 10.1885 22.826 10.1414L23.1721 10.0011C23.6355 9.8191 24.1045 9.64918 24.5835 9.50119C24.7041 9.46611 24.8225 9.42774 24.9442 9.39595C25.0648 9.36306 25.1865 9.33017 25.3094 9.30277C25.4311 9.27317 25.555 9.24796 25.679 9.22384C25.8051 9.20411 25.928 9.18547 26.0541 9.1778L26.0508 9.17999Z" fill="#2E2E2E"/>
<path d="M32.2078 29.3806C32.1486 29.5133 32.0883 29.6448 32.0135 29.7709C31.9442 29.9013 31.865 30.0219 31.7868 30.1458C31.7042 30.2653 31.6238 30.387 31.5367 30.5021C31.4507 30.6194 31.3614 30.7334 31.2709 30.8463C31.09 31.0732 30.8979 31.2892 30.7037 31.5019C30.5082 31.7134 30.3061 31.9195 30.1018 32.1212L29.7902 32.4194C29.6864 32.5192 29.5781 32.6135 29.4731 32.711C29.261 32.904 29.0432 33.0925 28.8244 33.2767C28.6055 33.462 28.3822 33.6417 28.1566 33.8193C27.9299 33.9958 27.7033 34.169 27.471 34.339L27.5514 34.0243C27.5938 34.1789 27.6441 34.3324 27.6988 34.4859C27.7546 34.6393 27.8149 34.7917 27.8808 34.9452C27.9467 35.0976 28.0193 35.2488 28.093 35.4023C28.1689 35.5536 28.2482 35.7049 28.3297 35.8595C28.2582 35.8079 28.1912 35.752 28.1242 35.695C28.0572 35.638 27.9947 35.5777 27.9311 35.5163C27.8038 35.3946 27.6854 35.2631 27.5737 35.1261C27.5179 35.0581 27.4643 34.9868 27.4129 34.9145C27.3616 34.8421 27.3102 34.7687 27.2633 34.693C27.2153 34.6174 27.1695 34.5407 27.126 34.4628C27.0824 34.3839 27.0422 34.3039 27.0031 34.2228C26.9562 34.1274 26.9775 34.0178 27.0467 33.9454L27.0835 33.9081C27.2823 33.7031 27.4866 33.5003 27.6921 33.3019L28.0025 33.007L28.3163 32.7165C28.4201 32.6189 28.5273 32.5247 28.6334 32.4293C28.7384 32.3339 28.8456 32.2385 28.9528 32.1454C29.1649 31.9568 29.3816 31.7715 29.596 31.5852L30.2458 31.0349L30.9013 30.49L31.5579 29.9441C31.6651 29.8509 31.7779 29.761 31.8851 29.6667L32.2133 29.3806H32.2078Z" fill="#2E2E2E"/>
<path d="M13.6027 26.2925C13.4799 26.2771 13.3593 26.2574 13.2387 26.2421L12.878 26.1883C12.6379 26.1511 12.399 26.1127 12.16 26.0721C11.6832 25.9899 11.2086 25.9 10.7363 25.8036C10.5007 25.7531 10.264 25.7049 10.0295 25.6512C9.79385 25.5997 9.55936 25.5448 9.32486 25.4889C8.85588 25.3782 8.38913 25.2598 7.92349 25.1348L8.36903 24.9233C8.29533 25.0789 8.22498 25.2379 8.15463 25.399C8.08317 25.5591 8.01729 25.7235 7.94917 25.8869C7.87994 26.0502 7.81741 26.2157 7.7493 26.3802L7.55389 26.8768L7.36294 27.3767C7.29929 27.5433 7.23788 27.711 7.17646 27.8788C7.11617 28.0476 7.05698 28.2164 6.99892 28.3863C6.96877 28.4718 6.94755 28.5573 6.91741 28.6439L6.84147 28.9059C6.82808 28.815 6.82249 28.724 6.81579 28.6319C6.81244 28.5409 6.81021 28.4477 6.81133 28.3567C6.81356 28.2657 6.81133 28.1726 6.82026 28.0816C6.82696 27.9906 6.83031 27.8974 6.84147 27.8075C6.85152 27.7165 6.85822 27.6244 6.87274 27.5345L6.91182 27.2627C6.94197 27.0818 6.97435 26.902 7.01232 26.7233C7.05028 26.5446 7.0916 26.367 7.1385 26.1894C7.18316 26.0118 7.23453 25.8364 7.28701 25.661C7.33949 25.4856 7.39979 25.3113 7.46009 25.137C7.48912 25.0493 7.52485 24.9638 7.55835 24.8772C7.59185 24.7906 7.62982 24.704 7.66443 24.6174C7.73255 24.4497 7.91567 24.3598 8.08987 24.4004L8.10997 24.4047C8.34558 24.4595 8.58007 24.5177 8.81456 24.5758C9.04794 24.6382 9.28243 24.6963 9.51469 24.7621C9.74807 24.8268 9.98033 24.8926 10.2115 24.9627C10.4437 25.0307 10.6738 25.1063 10.9038 25.1798C11.1338 25.2565 11.3627 25.3333 11.5905 25.4166C11.8183 25.4988 12.0461 25.5843 12.2717 25.6742C12.4972 25.7641 12.7217 25.8595 12.9439 25.9603C13.165 26.0645 13.3861 26.1697 13.5982 26.2925H13.6027Z" fill="#2E2E2E"/>
<path d="M6.89501 7.30212C6.89501 7.30212 6.88384 7.32515 6.86374 7.369C6.84141 7.41175 6.81238 7.47643 6.76883 7.55426C6.7264 7.631 6.67503 7.72528 6.61697 7.83271C6.55555 7.94233 6.48855 8.05634 6.41039 8.1857C6.39029 8.21749 6.37019 8.25038 6.35009 8.28327L6.33446 8.30848L6.32999 8.31506C6.32999 8.31506 6.31882 8.33041 6.33892 8.30519L6.33669 8.30848L6.32999 8.32164L6.30208 8.37426C6.26299 8.44442 6.22279 8.51787 6.18148 8.59241C6.10331 8.73712 6.02068 8.8895 5.93582 9.04736C5.8945 9.12738 5.85096 9.20741 5.80629 9.28853C5.76386 9.37075 5.72143 9.45406 5.67676 9.53738C5.62986 9.6196 5.59078 9.7062 5.545 9.78952C5.50033 9.87393 5.45455 9.95834 5.41324 10.0449C5.32502 10.216 5.23792 10.3859 5.15194 10.5547C5.11063 10.6402 5.06931 10.7235 5.02576 10.8057C4.98333 10.8891 4.94202 10.9713 4.90182 11.0524C4.81919 11.2146 4.73879 11.3714 4.66398 11.5205C4.58581 11.6696 4.51211 11.811 4.444 11.9415C4.30665 12.2035 4.18382 12.4216 4.09449 12.5751C4.00628 12.7286 3.94821 12.8163 3.94821 12.8163C3.94821 12.8163 3.9471 12.7911 3.94486 12.7428C3.94486 12.6957 3.93928 12.6233 3.94486 12.5356C3.94821 12.4468 3.95045 12.3383 3.96273 12.2155C3.97278 12.0916 3.99176 11.9546 4.0141 11.8044C4.03978 11.6553 4.06993 11.4931 4.11124 11.3254C4.15144 11.1565 4.20057 10.98 4.25975 10.8003C4.31782 10.6194 4.38593 10.4352 4.46186 10.251C4.53891 10.0669 4.62489 9.8827 4.71757 9.70182C4.81137 9.52203 4.91075 9.34334 5.01906 9.17452C5.12403 9.00351 5.23792 8.84126 5.35405 8.68779C5.46907 8.53541 5.59413 8.38632 5.70914 8.25805C5.76833 8.19557 5.82639 8.13527 5.88222 8.07717L5.92465 8.03442L5.9347 8.02346L5.93694 8.02126C5.95815 7.99495 5.94364 8.01359 5.9481 8.00701H5.94922L5.9548 8.00044L5.97713 7.9807C6.00728 7.95549 6.03632 7.93028 6.06535 7.90506C6.18036 7.8075 6.29314 7.7176 6.38917 7.64306C6.44054 7.60579 6.48185 7.5718 6.53098 7.53782C6.57565 7.50712 6.61697 7.47972 6.65381 7.4545C6.72751 7.40298 6.79004 7.3679 6.83024 7.34159C6.87267 7.31638 6.89501 7.30322 6.89501 7.30322V7.30212Z" fill="#2E2E2E"/>
</g>
<defs>
<clipPath id="clip0_158_52666">
<rect width="40" height="40" fill="white" transform="translate(0.5)"/>
</clipPath>
</defs>
</svg>